<svg xmlns="http://www.w3.org/2000/svg" viewBox="0 0 64 64">
  <rect width="64" height="64" fill="#000"/>
  <g stroke="#fff" stroke-width="2.2" stroke-linecap="round" stroke-linejoin="round" fill="none">
    <path d="M22 19.5C22 16.6 24.4 14.2 27.3 14.2C28.9 14.2 30.3 14.9 31.3 16C32.2 14.5 33.9 13.5 35.9 13.5C38.7 13.5 41 15.6 41.5 18.3C43.8 18.6 45.6 20.5 45.6 22.8C45.6 25.3 43.5 27.4 41 27.4H23.9C21.2 27.4 19 25.2 19 22.5C19 21.1 19.6 19.9 20.6 19.1"/>
    <line x1="23.5" y1="29.4" x2="40.5" y2="29.4"/>
    <circle cx="32" cy="38" r="10.8"/>
    <rect x="25.6" y="44.4" width="12.8" height="7" rx="2"/>
  </g>
  <circle cx="28.2" cy="37" r="2" fill="#fff"/>
  <circle cx="35.8" cy="37" r="2" fill="#fff"/>
  <path d="M32 39.7L30.5 42.2H33.5L32 39.7Z" fill="#fff"/>
</svg>
